<svg xmlns="http://www.w3.org/2000/svg" id="Layer_2" data-name="Layer 2" viewBox="0 0 490.5 516.13">
  <defs fill="#ffffff">
    <style>
      .cls-1 {
        stroke-width: 0px;
      }
    </style>
  </defs>
  <g id="Layer_1-2" data-name="Layer 1">
    <g>
      <path class="cls-1" d="m9.18,282.7v-37.43c-1.88,3.76-3.63,9.74-3.63,13.24,0,1.28.27,2.55.81,3.7l-.6.74c-2.69-1.14-5.31-5.24-5.31-10.55,0-1.21.13-2.55.47-3.9,1.41-5.85,6.79-11.49,8.8-16.13.87-2.22,3.09-6.32,1.48-7.86l.2-.6c2.82.6,3.96,3.02,3.96,6.32,0,.81-.07,1.68-.2,2.55v54.23l-5.98-4.3Z" fill="#ffffff"/>
      <path class="cls-1" d="m25.71,249.77l3.76-3.09c5.24,1.81,7.32,5.38,7.32,13.64v5.04c0,6.25-1.81,10.55-6.11,12.57l-4.97-4.17v4.17h-5.91v-45.63l5.91-4.03v21.5Zm.13,20.96l1.48,1.14c2.62-.2,3.36-2.69,3.36-7.26v-4.84c0-4.03-1.14-7.12-3.76-7.53l-1.08.67v17.81Z" fill="#ffffff"/>
      <path class="cls-1" d="m77.93,264.56c1.08,2.08,1.55,4.23,1.55,6.32,0,6.59-4.97,12.36-12.63,12.63-6.45.2-15.72-5.78-15.72-17.94v-6.32c0-3.63-1.48-6.25-4.1-7.32l-.94.87v25.13h-6.11v-27.95h6.11l3.43-3.36c4.17,1.14,7.59,4.1,7.79,14.04v9.81c0,6.85,7.46,7.66,10.15,7.46,5.98-.2,9.94-4.23,9.94-9.61,0-1.14-.2-2.28-.54-3.49l1.08-.27Z" fill="#ffffff"/>
      <path class="cls-1" d="m23.32,291.5c1.61,1.55,2.35,3.9,2.35,6.45,0,3.7-1.55,7.79-4.5,10.62l-.74.67h4.57v28.02c0,6.11.54,11.89,5.24,12.77.6.13,2.02-.07,3.23-.6l.6,1.14c-1.21,1.01-2.89,1.68-4.3,1.81-7.93.13-10.75-6.32-11.22-12.97l-7.53,6.85c-4.03-1.21-11.02-5.04-11.02-15.05,0-19.42,23.79-30.3,22.51-39.31l.81-.4Zm-5.04,19.96c-4.57,4.64-11.29,12.7-11.42,20.9.2,5.24,3.76,7.26,6.45,7.46l4.97-4.1v-24.26Z" fill="#ffffff"/>
      <path class="cls-1" d="m35.88,295.47v36.35c0,4.57,1.01,7.86,3.56,7.66l3.43-2.62,1.08,1.61-7.93,6.65c-4.37-2.02-6.05-6.32-6.05-12.57v-33.06l5.91-4.03Z" fill="#ffffff"/>
      <path class="cls-1" d="m46.97,316.97l3.76-3.09c5.24,1.81,7.32,5.38,7.32,13.64v5.04c0,6.25-1.81,10.55-6.11,12.57l-4.97-4.17v4.17h-5.91v-45.63l5.91-4.03v21.5Zm.13,20.96l1.48,1.14c2.62-.2,3.36-2.69,3.36-7.26v-4.84c0-4.03-1.14-7.12-3.76-7.53l-1.08.67v17.81Z" fill="#ffffff"/>
      <path class="cls-1" d="m77.75,308.17c.6.74.94,2.15.94,3.76s-.34,3.49-1.08,4.97c-.6,1.14-1.55,2.08-2.62,2.96h3.23v12.7c.13,4.23.94,7.12,3.36,6.92l3.43-2.62,1.08,1.61-7.86,6.65c-2.42-1.14-4.1-2.96-5.11-5.51l-6.05,5.51c-3.23-1.48-6.59-5.31-6.59-11.56v-3.02c0-13.1,16.06-15.05,16.53-22.17l.74-.2Zm-5.78,13.91c-2.69,1.95-5.31,4.23-5.31,8.27v3.23c.2,3.43,1.21,5.44,3.29,5.51l2.42-1.88c-.27-1.41-.4-2.96-.4-4.64v-10.48Z" fill="#ffffff"/>
      <path class="cls-1" d="m88.97,295.47v36.35c0,4.57,1.01,7.86,3.56,7.66l3.43-2.62,1.08,1.61-7.93,6.65c-4.37-2.02-6.05-6.32-6.05-12.57v-33.06l5.91-4.03Z" fill="#ffffff"/>
      <path class="cls-1" d="m110.67,308.17c.6.74.94,2.15.94,3.76s-.34,3.49-1.08,4.97c-.6,1.14-1.55,2.08-2.62,2.96h3.23v12.7c.13,4.23.94,7.12,3.36,6.92l3.43-2.62,1.08,1.61-7.86,6.65c-2.42-1.14-4.1-2.96-5.11-5.51l-6.05,5.51c-3.23-1.48-6.59-5.31-6.59-11.56v-3.02c0-13.1,16.06-15.05,16.53-22.17l.74-.2Zm-5.78,13.91c-2.69,1.95-5.31,4.23-5.31,8.27v3.23c.2,3.43,1.21,5.44,3.29,5.51l2.42-1.88c-.27-1.41-.4-2.96-.4-4.64v-10.48Z" fill="#ffffff"/>
      <path class="cls-1" d="m128.35,339.82l-6.25,5.31c-4.3-2.02-6.11-6.32-6.11-12.57v-5.04c0-8.26,2.08-11.83,7.32-13.64l3.76,3.09v-17.47l5.98-4.03v36.35c0,4.57,1.01,7.86,3.49,7.66l3.43-2.62,1.14,1.61-8,6.65c-2.28-1.01-3.83-2.96-4.77-5.31Zm-1.28-7.26v-12.36l-1.21-.74c-2.62.4-3.76,3.49-3.76,7.53v4.84c0,4.57.74,7.06,3.36,7.26l2.15-1.68c-.4-1.55-.54-3.23-.54-4.84Z" fill="#ffffff"/>
      <path class="cls-1" d="m444.14,55.16c-22.44,35.94-28.23,81.05-15.13,121.4,6.91,21.27,18.08,40.79,26.46,61.46,8.5,20.99,13.73,43.62,12.15,66.37-.8,11.41-3.36,22.68-7.85,33.21-2.26,5.3-4.99,10.4-8.2,15.18-1.45,2.16-3,4.27-4.64,6.29l-1,1.2c-4.26,4.76-2.11,2.68,6.45-6.24,8.94-8.55,11-10.71,6.2-6.49-.81.67-1.63,1.32-2.46,1.95-4.14,3.2-7.73,7.5-11.43,11.2s-7.11,8.26-11.2,11.43c4.58-3.55,8.7-7.56,12.82-11.63,7.04-6.95,14.31-13.79,20.85-21.22,6.88-7.81,12.29-16.82,16.13-26.48,8.94-22.47,8.91-47.39,3.43-70.7-5.66-24.1-17.58-45.7-27.39-68.22s-15.21-43.94-14.63-67.62c.64-26.04,8.26-51.62,22.06-73.71-.63,1-2.71,2.57-3.39,3.23-2.69,2.64-5.37,5.3-8.03,7.97-3.55,3.55-8.52,7.13-11.2,11.43h0Z" fill="#ffffff"/>
      <path class="cls-1" d="m399.48,271.9c11.4,20.23,23.92,42.97,21.53,67.03-1.02,10.32-5.03,20.03-11.4,28.2-.92,1.18-1.91,2.29-2.9,3.42,5.9-5.92,11.8-11.83,17.69-17.75l-1.77,1.52c-1.87,1.54-3.84,2.96-5.87,4.28-4.27,2.77-8.88,5.01-13.69,6.68-40.79,14.1-90.76-13.94-100.87-55.69-2.5-10.31-2.2-21.15.8-31.32,1.47-4.99,3.6-9.81,6.34-14.23,1.65-2.66,3.53-5.05,5.57-7.43-6.28,6.28-12.56,12.55-18.84,18.83l1.69-1.48c1.46-1.2,3.01-2.28,4.59-3.32,4.21-2.76,7.88-7.65,11.43-11.2,2.67-2.67,5.33-5.34,7.97-8.03.99-1.02,2.07-2.63,3.23-3.39-6.07,3.98-11.03,9.24-16.15,14.33-6.4,6.37-13.34,12.53-18.89,19.68-6.69,8.62-10.67,19.24-11.76,30.07-2.35,23.37,9.8,45.65,27.54,60.18,19.79,16.21,47.78,23.93,72.66,16.3,10.61-3.25,19.64-9.35,27.55-17,11.18-10.81,24.87-21.99,32.12-36.16,14.83-28.99-1.56-60.64-15.95-86.15.23.4-10.51,10.29-11.43,11.2-.97.97-11.69,10.55-11.2,11.43h0Z" fill="#ffffff"/>
      <path class="cls-1" d="m323.05,423.87c6.76,7.47,13.52,14.94,20.28,22.41-.2-.22,23.15-22.05,22.63-22.63-6.76-7.47-13.52-14.94-20.28-22.41.2.22-23.15,22.05-22.63,22.63h0Z" fill="#ffffff"/>
      <path class="cls-1" d="m342.75,315.85c4.88,10.28,11.88,19.11,20.79,26.19,1.13.9,21.87-23.23,22.63-22.63-8.91-7.08-15.91-15.91-20.79-26.19.27.58-10.46,10.24-11.43,11.2-1.05,1.05-11.73,10.32-11.2,11.43h0Z" fill="#ffffff"/>
      <path class="cls-1" d="m390.2,61.52c-15.12,28.78-22.87,61.15-22.21,93.68.7,34.6,12.27,67.09,24.18,99.18-.31-.82,10.38-10.15,11.43-11.2,2.67-2.67,5.33-5.34,7.97-8.03.41-.42,3.37-3.02,3.23-3.39-11.91-32.08-23.48-64.58-24.18-99.18-.66-32.52,7.09-64.9,22.21-93.68-.47.9-2.91,2.76-3.39,3.23-2.69,2.64-5.37,5.3-8.03,7.97s-5.33,5.34-7.97,8.03c-.98,1-2.59,2.16-3.23,3.39h0Z" fill="#ffffff"/>
      <path class="cls-1" d="m363.99,43.49c-14.58,14.49-28.34,28.36-37.04,47.26-7.32,15.91-11.2,33.29-11.99,50.75-.89,19.77,2.05,39.57,7.35,58.59,2.5,8.97,6.09,17.55,8.76,26.46,2,6.7,3.29,14.48-1.63,20.21l22.19-22.25c-6.98,6.5-19.05,3.75-26.6-.18-8.64-4.49-15.55-11.84-21.29-19.57-13.57-18.25-23.11-39.41-32.75-59.9.28.59-10.46,10.23-11.43,11.2-2.67,2.67-5.33,5.34-7.97,8.03-.6.61-3.22,2.63-3.23,3.39-.33,26.09,13.61,52.26,4.32,78.02-1.63,4.52-3.95,8.43-6.71,12.33,18.51-26.18,23.82-21.48,15.46-15.99-1.02.67-2.08,1.27-3.18,1.8-2.34,1.12-4.86,1.88-7.42,2.27-12.47,1.9-24.04-5.38-32.37-13.99-17.4-17.99-26.3-44.34-29.36-68.71-3.36-26.73.23-53.81,8.4-79.38,9.59-29.97,25.06-57.64,42.28-83.84-.68,1.03-2.65,2.51-3.39,3.23-2.69,2.64-5.37,5.3-8.03,7.97-3.71,3.71-7.98,7.27-11.2,11.43-14.99,19.35-29.29,39.22-42.8,59.63-12.74,19.25-24.82,39.17-33.12,60.79-16.74,43.6-13.56,91.45,1.13,135.16,7.44,22.14,17.69,43.37,30.15,63.11s26.5,36.03,40.05,53.86c6.77,8.9,13.27,18.03,18.94,27.68,5.45,9.29,10.87,19.35,12.8,30.05.94,5.2.91,10.63-.76,15.69-.57,1.72-1.31,3.38-2.23,4.94-.41.69-.87,1.31-1.3,1.98-6.47,9.94,27.15-23.48,16.35-16.42-6.88,4.5-14.46,6.94-22.73,7.02-22.31.21-39.14-17.31-52.26-33.32-17.89-21.84-35.22-44.16-52.81-66.24.75.94-23.65,21.18-22.63,22.63,17.46,24.76,36.14,51.28,39.93,82.17.88,7.17.77,14.87-2.67,21.41-.46.87-1.02,1.67-1.52,2.51l-.4.58,17.75-17.63c-1.17.8-2.27,1.69-3.48,2.44-2.87,1.79-5.98,3.19-9.12,4.41-14.82,5.74-31.78,9.79-47.74,8.15-15.04-1.54-29.72-9.2-36.89-22.92.25.48-10.49,10.27-11.43,11.2-1.01,1.01-11.71,10.45-11.2,11.43,16.5,31.61,60.96,25.48,87.99,13.37,8.64-3.87,14.63-10.38,21.26-17,6.84-6.82,16.3-13.92,19.21-23.62,4.72-15.73-2.21-35.04-8.61-49.34-7.97-17.82-19.24-33.9-30.45-49.79-7.54,7.54-15.08,15.08-22.63,22.63,16.43,20.63,32.81,41.3,49.29,61.89,12.42,15.52,27.41,33.61,48.21,37.08,8.21,1.37,16.98.39,24.57-3.1,3.49-1.61,6.52-3.78,9.34-6.37,7.44-6.83,14.55-14.18,21.54-21.49,16.26-17.01,5.41-39.62-4.76-56.97-11.81-20.14-27.15-37.86-41.29-56.35-14.64-19.14-27.35-39.56-37.29-61.54-19.58-43.28-29.66-92.92-18.55-139.86,6.23-26.35,19.22-50.45,33.67-73.13,15.22-23.89,31.76-46.95,49.11-69.34-7.54,7.54-15.08,15.08-22.63,22.63-31.81,48.4-58.35,104.6-50.57,164.02,3.37,25.78,13.43,55,33.89,72.25,9.54,8.05,22.52,13.03,34.59,7.61,5.64-2.53,9.83-7.15,14.15-11.42,6.9-6.82,14.82-13.46,20.51-21.39,19.23-26.82.9-59.62,1.27-88.85-7.54,7.54-15.08,15.08-22.63,22.63,10.12,21.53,20.09,44.31,35.12,62.98,6.42,7.98,14.4,15.5,24.3,18.79,4.41,1.46,9.27,2.1,13.88,1.31,6.44-1.1,10.42-6.28,14.84-10.66,4.14-4.1,8.26-8.22,12.34-12.38,1.63-1.67,3.54-3.37,4.77-5.39,2.41-3.98,2.15-8.98,1.3-13.37-2.11-10.97-7.25-21.41-10.21-32.19-6.49-23.61-9.32-48.55-5.64-72.87,1.78-11.73,5.04-23.25,9.85-34.1,2.39-5.39,5.18-10.62,8.36-15.59,1.73-2.71,3.57-5.34,5.53-7.88.65-.85,1.32-1.69,2-2.51.9-1.1,1.82-2.17,2.77-3.22,4.44-4.82,1.32-1.71-9.38,9.35,4.49-4.46,10.15-8.84,13.84-14,.98-1.37-1.39,1.21-1.23,1.05-2.31,2.19-4.55,4.46-6.81,6.71h0Z" fill="#ffffff"/>
      <path class="cls-1" d="m246.99,271.65c2.19,8.55,6.32,16.18,12.27,22.7-.17-.19,23.12-22.09,22.63-22.63-5.95-6.52-10.07-14.15-12.27-22.7.03.11-3.86,3.69-3.39,3.23-2.69,2.64-5.37,5.3-8.03,7.97s-5.33,5.34-7.97,8.03c-.45.46-3.35,2.92-3.23,3.39h0Z" fill="#ffffff"/>
      <path class="cls-1" d="m266.11,237.66c-.31-.45-.87-1.48-1.5-1.45-.29.01-.61.21-.83.38-.62.45-1.15,1.08-1.7,1.61-1.44,1.42-2.87,2.85-4.28,4.28-.53.54-1.16,1.07-1.6,1.71s-.46,1.4-.2,2.1c0-.02,1.22-1.16,1.06-1.01.84-.82,1.68-1.66,2.51-2.49s1.67-1.67,2.49-2.51c.13-.13,1.05-.95,1.01-1.06-.29-.79-.19-1.57.31-2.25l-.12.14.12-.14-6.45,6.47.13-.13-.5.46c.36-.29.91-.66,1.36-.38s.82.91,1.11,1.34c-.04-.06,3.3-3.23,3.57-3.5.83-.83,1.67-1.67,2.49-2.51.11-.11,1.05-1.01,1.01-1.06h0Z" fill="#ffffff"/>
    </g>
  </g>
</svg>