<svg xmlns="http://www.w3.org/2000/svg" xmlns:xlink="http://www.w3.org/1999/xlink" version="1.1" id="Layer_1_1_" x="0px" y="0px" viewBox="0 0 64 64" style="enable-background:new 0 0 64 64;" xml:space="preserve">
<g>
</g>
<path d="M19.686,12.046C19.276,12.182,19,12.563,19,12.995v4.01c0,0.432,0.276,0.813,0.686,0.949l2.177,0.721l0.375,0.904  l-0.918,1.934c-0.155,0.327-0.122,0.713,0.089,1.009c0.847,1.19,1.88,2.224,3.07,3.07c0.297,0.212,0.684,0.243,1.009,0.089  l1.894-0.899c0.313,0.148,0.634,0.282,0.958,0.398l0.707,2.135C29.182,27.724,29.563,28,29.995,28h4.01  c0.432,0,0.813-0.276,0.949-0.686l0.707-2.135c0.324-0.116,0.644-0.249,0.958-0.397l1.894,0.898  c0.328,0.154,0.713,0.122,1.009-0.089c1.19-0.847,2.224-1.88,3.07-3.07c0.211-0.296,0.244-0.682,0.089-1.009l-0.899-1.894  c0.148-0.313,0.282-0.634,0.398-0.958l2.135-0.707C44.724,17.818,45,17.437,45,17.005v-4.01c0-0.432-0.276-0.813-0.686-0.949  l-2.135-0.707c-0.116-0.324-0.249-0.644-0.397-0.958l0.898-1.894c0.155-0.327,0.122-0.713-0.089-1.009  c-0.847-1.19-1.88-2.224-3.07-3.07c-0.296-0.211-0.683-0.244-1.009-0.089l-1.894,0.898c-0.314-0.148-0.634-0.281-0.958-0.397  l-0.707-2.135C34.818,2.276,34.437,2,34.005,2h-4.01c-0.432,0-0.813,0.276-0.949,0.686l-0.721,2.177l-0.904,0.375l-1.934-0.918  c-0.328-0.155-0.712-0.122-1.009,0.089c-1.19,0.847-2.224,1.88-3.07,3.07c-0.211,0.296-0.244,0.682-0.089,1.009l0.919,1.934  l-0.376,0.904L19.686,12.046z M22.925,13.08c0.275-0.091,0.498-0.298,0.609-0.565l0.722-1.737c0.108-0.262,0.101-0.557-0.021-0.812  l-0.85-1.789c0.526-0.665,1.126-1.264,1.79-1.791l1.789,0.85c0.257,0.122,0.553,0.13,0.812,0.021l1.737-0.721  c0.269-0.111,0.476-0.334,0.566-0.609L30.718,4h2.564l0.638,1.925c0.102,0.309,0.348,0.548,0.658,0.643  c0.533,0.162,1.058,0.38,1.558,0.646c0.28,0.148,0.613,0.155,0.899,0.021l1.789-0.85c0.664,0.527,1.264,1.127,1.791,1.791  l-0.85,1.789c-0.136,0.286-0.128,0.619,0.021,0.899c0.267,0.5,0.484,1.024,0.646,1.558c0.095,0.311,0.334,0.557,0.643,0.658  L43,13.718v2.564l-1.925,0.638c-0.309,0.102-0.548,0.348-0.643,0.658c-0.162,0.534-0.38,1.059-0.646,1.557  c-0.149,0.28-0.157,0.614-0.021,0.9l0.85,1.789c-0.526,0.665-1.126,1.264-1.79,1.791l-1.789-0.85  c-0.286-0.137-0.619-0.129-0.899,0.021c-0.5,0.267-1.024,0.484-1.558,0.646c-0.311,0.095-0.557,0.334-0.658,0.643L33.282,26h-2.564  l-0.638-1.925c-0.102-0.309-0.348-0.548-0.658-0.643c-0.534-0.162-1.059-0.38-1.557-0.646c-0.281-0.151-0.615-0.158-0.9-0.021  l-1.789,0.85c-0.665-0.526-1.264-1.126-1.791-1.79l0.85-1.789c0.121-0.256,0.129-0.551,0.021-0.812l-0.721-1.737  c-0.111-0.269-0.334-0.476-0.609-0.566L21,16.282v-2.564L22.925,13.08z" fill="#b7afac"/>
<path d="M32,21.5c3.584,0,6.5-2.916,6.5-6.5S35.584,8.5,32,8.5s-6.5,2.916-6.5,6.5S28.416,21.5,32,21.5z M32,10.5  c2.481,0,4.5,2.019,4.5,4.5s-2.019,4.5-4.5,4.5s-4.5-2.019-4.5-4.5S29.519,10.5,32,10.5z" fill="#b7afac"/>
<path d="M18.836,2.134l-6,1l0.328,1.973l3.354-0.559C14.234,7.742,13,11.566,13,15.56c0,4.921,1.875,9.585,5.278,13.133l1.443-1.385  C16.677,24.135,15,19.962,15,15.56c0-4.403,1.677-8.575,4.722-11.747c0.298-0.311,0.364-0.778,0.163-1.159  C19.683,2.271,19.257,2.065,18.836,2.134z" fill="#b7afac"/>
<path d="M45.722,2.428l-1.443,1.385C47.323,6.984,49,11.156,49,15.56c0,4.402-1.677,8.575-4.722,11.748  c-0.316,0.329-0.369,0.831-0.128,1.219C44.336,28.827,44.661,29,45,29c0.1,0,0.2-0.015,0.299-0.046l6-1.88l-0.598-1.908  l-2.869,0.898C49.892,22.976,51,19.344,51,15.56C51,10.638,49.125,5.975,45.722,2.428z" fill="#b7afac"/>
<path d="M30,46H14v-4c0-0.395-0.232-0.753-0.593-0.913c-0.36-0.161-0.781-0.095-1.076,0.17l-10,9C2.12,50.446,2,50.717,2,51  s0.12,0.554,0.331,0.743l10,9C12.519,60.912,12.758,61,13,61c0.138,0,0.276-0.028,0.407-0.087C13.768,60.753,14,60.395,14,60v-3h16  c0.553,0,1-0.447,1-1v-9C31,46.447,30.553,46,30,46z M29,55H13c-0.553,0-1,0.447-1,1v1.755L4.495,51L12,44.245V47  c0,0.553,0.447,1,1,1h16V55z" fill="#b7afac"/>
<path d="M51.669,31.257c-0.294-0.265-0.715-0.332-1.076-0.17C50.232,31.247,50,31.605,50,32v3H34c-0.553,0-1,0.447-1,1v9  c0,0.553,0.447,1,1,1h16v4c0,0.395,0.232,0.753,0.593,0.913C50.724,50.972,50.862,51,51,51c0.242,0,0.481-0.088,0.669-0.257l10-9  C61.88,41.554,62,41.283,62,41s-0.12-0.554-0.331-0.743L51.669,31.257z M52,47.755V45c0-0.553-0.447-1-1-1H35v-7h16  c0.553,0,1-0.447,1-1v-1.755L59.505,41L52,47.755z" fill="#b7afac"/>
<rect x="34" y="55" width="9" height="2" fill="#b7afac"/>
<rect x="34" y="50" width="9" height="2" fill="#b7afac"/>
<rect x="45" y="50" width="2" height="2" fill="#b7afac"/>
<rect x="45" y="55" width="2" height="2" fill="#b7afac"/>
<rect x="21" y="35" width="9" height="2" fill="#b7afac"/>
<rect x="21" y="40" width="9" height="2" fill="#b7afac"/>
<rect x="17" y="40" width="2" height="2" fill="#b7afac"/>
<rect x="17" y="35" width="2" height="2" fill="#b7afac"/>
</svg>