<?xml version="1.0" encoding="UTF-8" standalone="no"?> <svg width="48" height="48" viewBox="0 0 48 48" fill="none" xmlns="http://www.w3.org/2000/svg">
<path d="M33.573 29.139C33.1339 27.6965 32.3755 26.3714 31.3541 25.2623C30.3327 24.1531 29.0745 23.2882 27.673 22.732C28.6671 21.9665 29.3967 20.9091 29.7594 19.708C30.1221 18.5069 30.0998 17.2223 29.6955 16.0346C29.2912 14.8468 28.5252 13.8154 27.5051 13.085C26.4849 12.3546 25.2617 11.9619 24.007 11.9619C22.7523 11.9619 21.5291 12.3546 20.5089 13.085C19.4888 13.8154 18.7228 14.8468 18.3185 16.0346C17.9142 17.2223 17.8918 18.5069 18.2546 19.708C18.6173 20.9091 19.3469 21.9665 20.341 22.732C18.9363 23.2863 17.6749 24.1505 16.6507 25.2602C15.6265 26.3699 14.8661 27.6965 14.426 29.141C14.2821 29.639 14.2679 30.1656 14.3846 30.6706C14.5014 31.1757 14.7452 31.6426 15.093 32.027C16.2151 33.2779 17.5881 34.2784 19.1225 34.9633C20.657 35.6482 22.3186 36.0022 23.999 36.0022C25.6794 36.0022 27.341 35.6482 28.8755 34.9633C30.4099 34.2784 31.7829 33.2779 32.905 32.027C33.2533 31.6425 33.4975 31.1753 33.6144 30.6698C33.7313 30.1644 33.7171 29.6374 33.573 29.139V29.139ZM24 14C24.7911 14 25.5645 14.2346 26.2223 14.6741C26.8801 15.1136 27.3928 15.7384 27.6955 16.4693C27.9983 17.2002 28.0775 18.0044 27.9231 18.7804C27.7688 19.5563 27.3878 20.269 26.8284 20.8284C26.269 21.3878 25.5563 21.7688 24.7804 21.9231C24.0044 22.0775 23.2002 21.9983 22.4693 21.6955C21.7384 21.3928 21.1136 20.8801 20.6741 20.2223C20.2346 19.5645 20 18.7911 20 18C20 16.9391 20.4214 15.9217 21.1716 15.1716C21.9217 14.4214 22.9391 14 24 14ZM31.42 30.687C30.4853 31.7294 29.3414 32.5632 28.063 33.134C26.7845 33.7048 25.4001 33.9998 24 33.9998C22.5999 33.9998 21.2155 33.7048 19.937 33.134C18.6585 32.5632 17.5147 31.7294 16.58 30.687C16.461 30.5576 16.3768 30.4 16.3353 30.2291C16.2939 30.0582 16.2965 29.8796 16.343 29.71C16.834 28.0605 17.8445 26.6136 19.2242 25.5848C20.6039 24.5559 22.2789 24.0001 24 24.0001C25.721 24.0001 27.3961 24.5559 28.7758 25.5848C30.1555 26.6136 31.166 28.0605 31.657 29.71C31.7035 29.8796 31.7061 30.0582 31.6647 30.2291C31.6232 30.4 31.539 30.5576 31.42 30.687V30.687Z" fill="#b7afac"/>
<path d="M22.207 6.207L23 5.414V9C23 9.26522 23.1054 9.51957 23.2929 9.70711C23.4804 9.89464 23.7348 10 24 10C24.2652 10 24.5196 9.89464 24.7071 9.70711C24.8946 9.51957 25 9.26522 25 9V5.414L25.793 6.207C25.9816 6.38916 26.2342 6.48995 26.4964 6.48767C26.7586 6.4854 27.0094 6.38023 27.1948 6.19482C27.3802 6.00941 27.4854 5.7586 27.4877 5.4964C27.4899 5.2342 27.3892 4.9816 27.207 4.793L24.707 2.293C24.5195 2.10553 24.2652 2.00021 24 2.00021C23.7348 2.00021 23.4805 2.10553 23.293 2.293L20.793 4.793C20.6108 4.9816 20.51 5.2342 20.5123 5.4964C20.5146 5.7586 20.6198 6.00941 20.8052 6.19482C20.9906 6.38023 21.2414 6.4854 21.5036 6.48767C21.7658 6.48995 22.0184 6.38916 22.207 6.207V6.207Z" fill="#b7afac"/>
<path d="M25.793 41.793L25 42.586V39C25 38.7348 24.8946 38.4804 24.7071 38.2929C24.5196 38.1054 24.2652 38 24 38C23.7348 38 23.4804 38.1054 23.2929 38.2929C23.1054 38.4804 23 38.7348 23 39V42.586L22.207 41.793C22.0184 41.6108 21.7658 41.51 21.5036 41.5123C21.2414 41.5146 20.9906 41.6198 20.8052 41.8052C20.6198 41.9906 20.5146 42.2414 20.5123 42.5036C20.51 42.7658 20.6108 43.0184 20.793 43.207L23.293 45.707C23.4805 45.8945 23.7348 45.9998 24 45.9998C24.2652 45.9998 24.5195 45.8945 24.707 45.707L27.207 43.207C27.3892 43.0184 27.4899 42.7658 27.4877 42.5036C27.4854 42.2414 27.3802 41.9906 27.1948 41.8052C27.0094 41.6198 26.7586 41.5146 26.4964 41.5123C26.2342 41.51 25.9816 41.6108 25.793 41.793V41.793Z" fill="#b7afac"/>
<path d="M45.707 23.293L43.207 20.793C43.0184 20.6108 42.7658 20.51 42.5036 20.5123C42.2414 20.5146 41.9906 20.6198 41.8052 20.8052C41.6198 20.9906 41.5146 21.2414 41.5123 21.5036C41.51 21.7658 41.6108 22.0184 41.793 22.207L42.586 23H39C38.7348 23 38.4804 23.1054 38.2929 23.2929C38.1054 23.4804 38 23.7348 38 24C38 24.2652 38.1054 24.5196 38.2929 24.7071C38.4804 24.8946 38.7348 25 39 25H42.586L41.793 25.793C41.6975 25.8852 41.6213 25.9956 41.5689 26.1176C41.5165 26.2396 41.4889 26.3708 41.4878 26.5036C41.4866 26.6364 41.5119 26.7681 41.5622 26.8909C41.6125 27.0138 41.6867 27.1255 41.7806 27.2194C41.8745 27.3133 41.9862 27.3875 42.109 27.4378C42.2319 27.4881 42.3636 27.5134 42.4964 27.5122C42.6292 27.5111 42.7604 27.4835 42.8824 27.4311C43.0044 27.3787 43.1148 27.3025 43.207 27.207L45.707 24.707C45.8945 24.5195 45.9998 24.2652 45.9998 24C45.9998 23.7348 45.8945 23.4805 45.707 23.293V23.293Z" fill="#b7afac"/>
<path d="M5.414 25H9C9.26522 25 9.51957 24.8946 9.70711 24.7071C9.89464 24.5196 10 24.2652 10 24C10 23.7348 9.89464 23.4804 9.70711 23.2929C9.51957 23.1054 9.26522 23 9 23H5.414L6.207 22.207C6.38916 22.0184 6.48995 21.7658 6.48767 21.5036C6.4854 21.2414 6.38023 20.9906 6.19482 20.8052C6.00941 20.6198 5.7586 20.5146 5.4964 20.5123C5.2342 20.51 4.9816 20.6108 4.793 20.793L2.293 23.293C2.10553 23.4805 2.00021 23.7348 2.00021 24C2.00021 24.2652 2.10553 24.5195 2.293 24.707L4.793 27.207C4.88525 27.3025 4.99559 27.3787 5.1176 27.4311C5.2396 27.4835 5.37082 27.5111 5.5036 27.5122C5.63638 27.5134 5.76806 27.4881 5.89095 27.4378C6.01385 27.3875 6.1255 27.3133 6.2194 27.2194C6.31329 27.1255 6.38754 27.0138 6.43782 26.8909C6.4881 26.7681 6.5134 26.6364 6.51225 26.5036C6.5111 26.3708 6.48351 26.2396 6.4311 26.1176C6.37869 25.9956 6.30251 25.8852 6.207 25.793L5.414 25Z" fill="#b7afac"/>
<path d="M9.14999 13.687C9.41521 13.687 9.66957 13.5816 9.8571 13.3941C10.0446 13.2066 10.15 12.9522 10.15 12.687V11.565L12.687 14.1C12.8769 14.2748 13.1269 14.3693 13.3849 14.364C13.6429 14.3587 13.8888 14.2538 14.0713 14.0713C14.2538 13.8889 14.3586 13.6429 14.364 13.3849C14.3693 13.1269 14.2747 12.8769 14.1 12.687L11.564 10.151H12.686C12.9512 10.151 13.2056 10.0456 13.3931 9.85811C13.5806 9.67057 13.686 9.41622 13.686 9.151C13.686 8.88578 13.5806 8.63143 13.3931 8.44389C13.2056 8.25636 12.9512 8.151 12.686 8.151H9.14999C8.88478 8.151 8.63042 8.25636 8.44289 8.44389C8.25535 8.63143 8.14999 8.88578 8.14999 9.151V12.687C8.14999 12.9522 8.25535 13.2066 8.44289 13.3941C8.63042 13.5816 8.88478 13.687 9.14999 13.687Z" fill="#b7afac"/>
<path d="M38.85 34.313C38.5848 34.313 38.3304 34.4184 38.1429 34.6059C37.9554 34.7934 37.85 35.0478 37.85 35.313V36.436L35.313 33.9C35.1231 33.7253 34.8731 33.6307 34.6151 33.636C34.3571 33.6413 34.1111 33.7462 33.9287 33.9287C33.7462 34.1111 33.6413 34.3571 33.636 34.6151C33.6307 34.8731 33.7253 35.1231 33.9 35.313L36.436 37.849H35.313C35.0478 37.849 34.7934 37.9544 34.6059 38.1419C34.4184 38.3294 34.313 38.5838 34.313 38.849C34.313 39.1142 34.4184 39.3686 34.6059 39.5561C34.7934 39.7436 35.0478 39.849 35.313 39.849H38.85C39.1152 39.849 39.3696 39.7436 39.5571 39.5561C39.7446 39.3686 39.85 39.1142 39.85 38.849V35.313C39.85 35.0478 39.7446 34.7934 39.5571 34.6059C39.3696 34.4184 39.1152 34.313 38.85 34.313Z" fill="#b7afac"/>
<path d="M34.606 14.394C34.8712 14.3939 35.1255 14.2886 35.313 14.101L37.85 11.565V12.687C37.85 12.9522 37.9554 13.2066 38.1429 13.3941C38.3304 13.5816 38.5848 13.687 38.85 13.687C39.1152 13.687 39.3696 13.5816 39.5571 13.3941C39.7446 13.2066 39.85 12.9522 39.85 12.687V9.151C39.85 8.88578 39.7446 8.63143 39.5571 8.44389C39.3696 8.25636 39.1152 8.151 38.85 8.151H35.313C35.0478 8.151 34.7934 8.25636 34.6059 8.44389C34.4184 8.63143 34.313 8.88578 34.313 9.151C34.313 9.41622 34.4184 9.67057 34.6059 9.85811C34.7934 10.0456 35.0478 10.151 35.313 10.151H36.435L33.9 12.687C33.7602 12.8269 33.665 13.005 33.6264 13.199C33.5878 13.3929 33.6076 13.594 33.6833 13.7767C33.759 13.9594 33.8871 14.1155 34.0515 14.2254C34.2159 14.3353 34.4092 14.394 34.607 14.394H34.606Z" fill="#b7afac"/>
<path d="M12.687 33.9L10.15 36.436V35.313C10.15 35.0478 10.0446 34.7934 9.8571 34.6059C9.66957 34.4184 9.41521 34.313 9.14999 34.313C8.88478 34.313 8.63042 34.4184 8.44289 34.6059C8.25535 34.7934 8.14999 35.0478 8.14999 35.313V38.849C8.14999 39.1142 8.25535 39.3686 8.44289 39.5561C8.63042 39.7436 8.88478 39.849 9.14999 39.849H12.687C12.9522 39.849 13.2066 39.7436 13.3941 39.5561C13.5816 39.3686 13.687 39.1142 13.687 38.849C13.687 38.5838 13.5816 38.3294 13.3941 38.1419C13.2066 37.9544 12.9522 37.849 12.687 37.849H11.565L14.1 35.313C14.2747 35.1231 14.3693 34.8731 14.364 34.6151C14.3586 34.3571 14.2538 34.1111 14.0713 33.9287C13.8888 33.7462 13.6429 33.6413 13.3849 33.636C13.1269 33.6307 12.8769 33.7253 12.687 33.9V33.9Z" fill="#b7afac"/>
</svg>
